<svg id="Layer_1" enable-background="new 0 0 512 512" height="512" viewBox="0 0 512 512" width="512" xmlns="http://www.w3.org/2000/svg"><g><path d="m512 63.2c0-34.848-28.352-63.2-63.2-63.2-14.873 0-28.997 5.195-40.166 14.403-11.17-9.208-25.294-14.403-40.167-14.403-27.815 0-51.473 18.07-59.898 43.081 40.729 4.928 78.376 23.159 107.783 52.565 30.202 30.203 47.709 68.365 52.531 107.797 25.029-8.414 43.116-32.081 43.116-59.91 0-14.874-5.195-28.999-14.401-40.167 9.207-11.167 14.402-25.292 14.402-40.166z"/><path d="m231.387 81.636.004.004 30.07 30.07c5.86 5.85 5.86 15.35 0 21.21s-15.35 5.86-21.21 0l-37.14-37.14c-9.319 5.932-18.139 12.953-26.267 21.08-8.956 8.956-17.987 20.222-26.979 33.204l47.335 47.336c5.85 5.86 5.85 15.35 0 21.21-5.86 5.86-15.36 5.86-21.22 0l-42.687-42.687c-12.717 21.267-25.205 45.301-37.126 70.394l.003.003 36.76 36.76c5.86 5.86 5.86 15.36 0 21.21-5.86 5.86-15.35 5.86-21.21.01l-28.92-28.92c-11.352 25.452-22.017 51.298-31.666 75.864l17.526 17.526c5.86 5.86 5.86 15.36 0 21.22-5.86 5.85-15.35 5.85-21.21 0l-8.097-8.097c-22.411 59.542-37.172 105.895-38.654 110.584-1.688 5.338-.263 11.171 3.695 15.129s9.792 5.383 15.129 3.695c11.912-3.767 292.683-93.21 375.617-176.145 60.185-60.185 60.184-158.112 0-218.297-44.196-44.194-108.744-55.935-163.753-35.223z"/></g></svg>