<svg id="bold" height="512" viewBox="0 0 24 24" width="512" xmlns="http://www.w3.org/2000/svg"><path d="m8.321 23.999c-.406 0-.812-.079-1.193-.237-.795-.329-1.425-.98-1.727-1.786l-.743-1.98c-.114-.302-.353-.541-.655-.654l-1.979-.743c-.806-.302-1.457-.932-1.786-1.727-.33-.795-.314-1.7.042-2.483l.875-1.925c.134-.294.134-.631 0-.925l-.875-1.927c-.355-.783-.371-1.688-.042-2.483s.98-1.425 1.786-1.727l1.98-.743c.302-.114.541-.353.654-.655l.743-1.979c.302-.806.932-1.457 1.727-1.786.795-.33 1.7-.314 2.483.042l1.925.875c.295.135.632.134.925 0h.001l1.925-.875c.783-.354 1.688-.372 2.483-.042.795.329 1.425.98 1.727 1.786l.743 1.98c.114.302.353.541.655.654l1.979.743c.806.302 1.457.932 1.786 1.727.33.795.314 1.7-.042 2.483l-.875 1.925c-.134.294-.134.631 0 .925l.875 1.926c.355.783.371 1.688.042 2.483s-.98 1.425-1.786 1.727l-1.98.743c-.302.114-.541.353-.654.655l-.743 1.979c-.302.806-.932 1.457-1.727 1.786-.795.33-1.701.313-2.483-.042l-1.925-.875c-.295-.135-.632-.134-.925 0l-1.925.876c-.408.185-.849.279-1.291.279zm.001-21.999c-.145 0-.29.029-.429.086-.29.12-.51.348-.62.641l-.742 1.979c-.316.843-.982 1.509-1.825 1.825l-1.979.742c-.293.11-.521.331-.641.62-.12.29-.115.607.015.892l.875 1.925c.373.819.373 1.761 0 2.581l-.874 1.924c-.13.285-.135.602-.015.891.12.29.348.51.641.62l1.979.743c.843.316 1.509.981 1.825 1.825l.742 1.979c.11.293.331.521.62.641.29.121.606.114.891-.015l1.925-.875c.819-.373 1.759-.374 2.581 0l1.924.874c.286.129.602.136.891.015.29-.12.51-.348.62-.641l.743-1.979c.316-.843.981-1.509 1.825-1.825l1.979-.742c.293-.11.521-.331.641-.62.12-.29.115-.606-.015-.891l-.875-1.925c-.373-.819-.373-1.761 0-2.581l.874-1.924c.13-.285.135-.602.015-.891-.12-.29-.348-.51-.641-.62l-1.979-.743c-.843-.316-1.509-.981-1.825-1.825l-.742-1.979c-.11-.293-.331-.521-.62-.641s-.605-.115-.891.015l-1.925.875c-.821.373-1.761.372-2.581 0l-1.924-.875c-.149-.067-.306-.101-.463-.101z"/><path d="m9 11c-1.103 0-2-.897-2-2s.897-2 2-2 2 .897 2 2-.897 2-2 2z"/><path d="m15 17c-1.103 0-2-.897-2-2s.897-2 2-2 2 .897 2 2-.897 2-2 2z"/><path d="m8.999 17c-.208 0-.419-.065-.599-.2-.442-.331-.531-.958-.2-1.4l6-8c.332-.441.958-.532 1.4-.2.442.331.531.958.2 1.4l-6 8c-.196.262-.497.4-.801.4z"/></svg>